Simulation
nRows=16
nColumns=15
endheader
time  TH_x TH_y TH_z SC_y  SC_z  SC_x  AC_y  AC_z  AC_x  GH_y  GH_z  GH_yy  EL_x  PS_y
2.8725  0.000000  0.000000  0.000000  -35.67595218884506  -0.9011514925291308  -24.959874903667615  37.539897648220624  24.321927009473583  15.9509224943485  37.39284817555812  7.0088189567389305  -30.01003843267055  14.047328989343477  120.000000
2.92995  0.000000  0.000000  0.000000  -35.71814298234933  -0.9483958342025027  -24.59857112679418  37.80566036196502  24.600193971777202  15.849633521023263  49.32637234799711  6.013358748042386  -39.094643050974035  14.412878784517279  120.000000
2.9874  0.000000  0.000000  0.000000  -35.82470407679419  -0.9138826176902319  -24.04420727724097  38.092865943970004  24.7413534870039  15.626044594673498  63.27018164526661  5.519686166273633  -50.64258699991626  14.862784266835963  120.000000
3.0448500000000003  0.000000  0.000000  0.000000  -35.97552733699781  -0.7922398055863433  -23.328556320412  38.37437284250477  24.738115709673114  15.299848673499627  76.94031813915514  5.462044668367154  -62.40519802727322  15.351556939419963  120.000000
3.1023  0.000000  0.000000  0.000000  -36.14596611365263  -0.5875775209949119  -22.487657253593333  38.63747518365178  24.598199408382605  14.892479493119325  88.32756197820227  5.693883100426027  -72.35363064280025  15.836443866081833  120.000000
3.15975  0.000000  0.000000  0.000000  -36.31461656798429  -0.3141484712011806  -21.560631792917327  38.88139020467618  24.342313831087242  14.427616330084211  96.82795971991246  6.0551253432478775  -79.82622374352911  16.28784593809927  120.000000
3.2172  0.000000  0.000000  0.000000  -36.466314702932  0.0038186179647063017  -20.586277381917515  39.11214232382899  23.995236180914464  13.928801115223864  102.79110287239253  6.427388465431899  -85.09127239004529  16.695622299369564  120.000000
3.2746500000000003  0.000000  0.000000  0.000000  -36.58870187664844  0.3371138556560291  -19.599435941259866  39.34018783578197  23.58023540274548  13.414413251429002  106.80257975717879  6.744532408274064  -88.6426623145684  17.066977409593125  120.000000
3.3321  0.000000  0.000000  0.000000  -36.67169022276238  0.658688383006903  -18.62892048013168  39.57547003805981  23.117197956921796  12.898798753927618  109.37058559689093  6.981480782582029  -90.89927727996397  17.418425878514324  120.000000
3.38955  0.000000  0.000000  0.000000  -36.71088508213039  0.9482530550568604  -17.69691857416629  39.82329442027588  22.621823831509815  12.39270550866365  110.87374537430975  7.139881859660503  -92.16513203771038  17.76604772197908  120.000000
3.447  0.000000  0.000000  0.000000  -36.70849435632265  1.194369980263539  -16.82078003713381  40.08504257595955  22.10701518011828  11.902115609941937  111.58458381955543  7.238222498538672  -92.661701972087  18.11934834742062  120.000000
3.5044500000000003  0.000000  0.000000  0.000000  -36.67260880626712  1.3915532730884173  -16.012371766690006  40.35653179505351  21.583580264958005  11.43184858337205  111.7005519673173  7.302316065520517  -92.559846525586  18.480852497535185  120.000000
3.5619  0.000000  0.000000  0.000000  -36.61417202096695  1.5390000407826527  -15.278084815588937  40.627191948138126  21.061353892119502  10.988222795999711  111.36794820964347  7.355056956774282  -91.99805948694208  18.848606095204712  120.000000
3.61935  0.000000  0.000000  0.000000  -36.54285840820297  1.6431234098021157  -14.622278088194937  40.885832554872835  20.55135572094005  10.57612213573563  110.68404770118609  7.41232674948833  -91.07632683191152  19.219685022639755  120.000000
3.6768  0.000000  0.000000  0.000000  -36.46419804386188  1.7168964517758836  -14.04981182549656  41.12380312371078  20.06416503153007  10.19858180589156  109.7049451871071  7.4832045667806515  -89.85687639480655  19.592420445514904  120.000000
3.7342500000000003  0.000000  0.000000  0.000000  -36.37973594763037  1.772813249338187  -13.56653609349103  41.332773999538276  19.605993694106136  9.859891467134872  108.46012118213997  7.56930350231101  -88.37421644860791  19.966478703364633  120.000000
